@startuml
title 基于GitHub的实验管理平台--类图
class users {
    <b>user_id</b> （用户ID）
    name （用户真实姓名）
    github_username （用户GitHub账号）
    update_date （用户GitHub账号修改日期）
    password （用户密码）
}
class teachers{
    <b>teacher_id</b> （老师工号）
    <b>user_id</b> （用户ID）
    department （老师所属部门）
}
class students{
    <b>student_id</b> （学号）
    <b>courses_id</b> （课程编号）
    <b>user_id</b> （用户ID）
    class （班级）
    homework （作业）
}
users <|- students
users <|-- teachers

class score {
    <b>student_id</b> （学号）
    <b>test_id</b> （学号）
    result1 （完成度）
    result2 （规范度）
    result3 （创新）
    result （总分）
    memo （评价）
    update_date （评改日期）
}
class courses{
    <b>courses_id</b> （课程编号）
    <b>test_id</b> （实验编号）
    courses_name （课程名称）
}
class tests {
    <b>test_id</b> （实验编号）
    <b>courses_id</b> （课程编号）
    test_title （实验名称）
    demand （实验要求）
    content （提交内容）
    status （状态）
    result （成绩）
    deadline （截止日期）
}

tests "n" -- "1"  courses
tests "1" -- "1"  score
students "n" -- "1"  score

@enduml